PathFileType	4	(x/y/z)	S01_M20_T03.trc
DataRate	CameraRate	NumFrames	NumMarkers	Units	OrigDataRate	OrigDataStartFrame	OrigNumFrames
240	240	4	51	mm	240	367	488
Frame#	Time	Sternum			R.Acromium			L.Acromium			Top.Head			R.ASIS			L.ASIS			R.PSIS			L.PSIS			R.Great.Tro			L.Great.Tro			R.Iliac.Crest			L.Iliac.Crest			V.Sacral			R.Thigh.Upper.Post			R.Thigh.Lower.Ant			R.Thigh.Lower.Post			R.Thigh.Upper.Ant			R.Knee.Lat			R.Knee.Med			R.Shank.Upper.Post			R.Shank.Lower.Ant			R.Shank.Lower.Post			R.Shank.Upper.Ant			R.Ankle.Lat			R.Ankle.Med			R.Heel.Upper			R.Heel.Med			R.Heel.Lat			R.Toe.Lat			R.Toe.Med			R.Toe.Tip			L.Thigh.Upper.Post			L.Thigh.Lower.Ant			L.Thigh.Lower.Post			L.Thigh.Upper.Ant			L.Knee.Lat			L.Knee.Med			L.Shank.Upper.Post			L.Shank.Lower.Ant			L.Shank.Lower.Post			L.Shank.Upper.Ant			L.Ankle.Lat			L.Ankle.Med			L.Heel.Upper			L.Heel.Med			L.Heel.Lat			L.Toe.Lat			L.Toe.Med			L.Toe.Tip			Cervical.Spine			Back			
		X1	Y1	Z1	X2	Y2	Z2	X3	Y3	Z3	X4	Y4	Z4	X5	Y5	Z5	X6	Y6	Z6	X7	Y7	Z7	X8	Y8	Z8	X9	Y9	Z9	X10	Y10	Z10	X11	Y11	Z11	X12	Y12	Z12	X13	Y13	Z13	X14	Y14	Z14	X15	Y15	Z15	X16	Y16	Z16	X17	Y17	Z17	X18	Y18	Z18	X19	Y19	Z19	X20	Y20	Z20	X21	Y21	Z21	X22	Y22	Z22	X23	Y23	Z23	X24	Y24	Z24	X25	Y25	Z25	X26	Y26	Z26	X27	Y27	Z27	X28	Y28	Z28	X29	Y29	Z29	X30	Y30	Z30	X31	Y31	Z31	X32	Y32	Z32	X33	Y33	Z33	X34	Y34	Z34	X35	Y35	Z35	X36	Y36	Z36	X37	Y37	Z37	X38	Y38	Z38	X39	Y39	Z39	X40	Y40	Z40	X41	Y41	Z41	X42	Y42	Z42	X43	Y43	Z43	X44	Y44	Z44	X45	Y45	Z45	X46	Y46	Z46	X47	Y47	Z47	X48	Y48	Z48	X49	Y49	Z49	X50	Y50	Z50	X51	Y51	Z51	

367	1.525	557.96	1304.3	277.56	429.69	1549.7	445.49	423.3	1563.2	115.41	379.68	1870.3	277.08	507.97	1047.5	436.61	525.55	1044.2	170.01	278.21	1085.3	329.76	282.03	1083.1	225.86	427.48	993.69	515.04	426.91	990.76	87.476	416.5	1147.9	493.37	417.46	1122.8	87.776	265.88	1047.4	274.7	496.56	692.09	517.88	584.07	639.56	507.68	522.71	606.93	504.88	560.83	726.98	517.9	546.92	550.26	505.16	578.66	546.36	360.29	410.13	460.35	501.96	412.02	356.05	464.01	365.07	408.69	485.14	454.53	411.87	487.39	242.04	251.98	431.85	288.39	232.36	348.28	185.85	273.92	358.74	183.11	242.61	327.78	165.13	244.91	390.29	276.63	107.42	475.14	329.41	91.277	363.6	378.45	66.279	429.73	416.37	702.74	120.78	505.54	638.18	127.64	431.59	615.1	142.53	481.64	727.89	103.92	487.81	533.19	141.69	502.54	543.25	281.19	430.62	393.85	124.19	488.35	303.78	156.04	429.04	316.27	131.32	490.44	380.19	145.28	407.11	105.39	175.05	428.59	118.35	272.67	333.62	75.997	218.94	342.47	51.586	253.86	343.74	48.982	191.34	554.58	39.674	165.5	575.44	48.091	288.11	640.37	57.1	239.47	330.54	1605.9	282.71	262.16	1295.3	294.76
368	1.5292	562.77	1304.9	277.32	434.38	1550.2	445.34	428.09	1563.7	115.24	384.64	1870.9	277.09	513.06	1048.2	436.14	530.17	1044.6	169.51	283.12	1085.8	329.92	286.68	1083.6	226	432.96	994.56	515	431.16	991.09	87.38	421.65	1148.5	493.16	421.83	1123.1	87.527	270.68	1047.9	274.9	504.29	693.39	518.02	592.17	641.55	507.17	531.05	608.45	504.82	568.29	728.79	517.58	555.53	551.85	504.86	586.58	548.24	359.91	419.88	459.63	501.74	423.55	355.41	463.69	375.72	407.18	484.83	465.11	411.94	487.13	255.38	248.25	431.54	302.13	229.65	348	198.57	268.9	358.45	196.59	237.49	327.53	178.55	239.43	390.05	293.27	104.62	474.98	346.39	89.611	363.42	395.98	65.786	429.57	418.44	703.39	120.77	507.15	638.12	127.33	433.03	615.62	142.4	483.84	728.03	103.69	488.6	533.21	141.31	503.77	543.1	280.81	430.99	393.94	123.96	488.56	303.76	155.74	429.25	316.37	131.12	490.77	380.18	144.92	407.15	105.44	175.05	428.61	118.41	272.61	333.66	76.083	218.95	342.48	51.643	253.88	343.75	49.059	191.36	554.6	39.62	165.47	575.46	48.079	288.09	640.39	57.046	239.43	335.35	1606.4	282.52	267.01	1295.8	294.55
369	1.5333	567.59	1305.4	277.08	439.08	1550.6	445.21	432.88	1564.2	115.07	389.59	1871.3	277.1	518.13	1048.8	435.68	534.77	1044.9	169.03	288.04	1086.2	330.09	291.32	1084.1	226.13	438.43	995.38	514.96	435.41	991.39	87.29	426.8	1149.1	492.97	426.25	1123.4	87.288	275.47	1048.4	275.1	511.96	694.65	518.13	600.19	643.49	506.66	539.3	609.92	504.73	575.68	730.54	517.24	564.05	553.41	504.55	594.42	550.07	359.51	429.6	458.86	501.51	435.08	354.74	463.4	386.37	405.62	484.52	475.66	411.98	486.88	268.82	244.46	431.25	315.97	226.88	347.74	211.43	263.78	358.17	210.22	232.26	327.3	192.13	233.86	389.82	310.01	101.84	474.88	363.47	87.968	363.3	413.57	65.351	429.47	420.52	704.03	120.76	508.76	638.06	127.03	434.49	616.12	142.28	486.06	728.17	103.48	489.41	533.22	140.95	504.98	542.94	280.45	431.38	394.02	123.75	488.78	303.73	155.46	429.48	316.46	130.94	491.13	380.16	144.58	407.18	105.49	175.05	428.61	118.48	272.55	333.7	76.165	218.96	342.5	51.697	253.9	343.76	49.131	191.38	554.62	39.569	165.44	575.48	48.065	288.07	640.4	56.993	239.4	340.16	1606.8	282.34	271.86	1296.2	294.36
370	1.5375	572.41	1305.9	276.85	443.78	1551	445.08	437.67	1564.6	114.91	394.51	1871.7	277.12	523.19	1049.3	435.24	539.37	1045.2	168.58	292.94	1086.6	330.25	295.95	1084.6	226.26	443.88	996.15	514.93	439.67	991.65	87.209	431.94	1149.6	492.79	430.7	1123.6	87.063	280.26	1048.8	275.29	519.56	695.86	518.2	608.12	645.37	506.13	547.48	611.35	504.61	583.01	732.23	516.89	572.5	554.93	504.23	602.19	551.84	359.11	439.29	458.03	501.27	446.62	354.04	463.13	397.02	404	484.2	486.19	411.99	486.65	282.36	240.61	430.98	329.91	224.05	347.52	224.43	258.56	357.9	224	226.96	327.09	205.85	228.23	389.61	326.84	99.109	474.82	380.64	86.356	363.25	431.21	64.982	429.45	422.62	704.65	120.76	510.39	637.98	126.75	435.96	616.61	142.15	488.29	728.29	103.27	490.24	533.23	140.6	506.19	542.76	280.11	431.79	394.1	123.55	489.02	303.69	155.19	429.73	316.55	130.75	491.51	380.13	144.25	407.22	105.54	175.05	428.62	118.54	272.49	333.74	76.244	218.98	342.53	51.749	253.93	343.78	49.199	191.4	554.64	39.52	165.41	575.5	48.049	288.05	640.42	56.942	239.36	344.98	1607.2	282.18	276.71	1296.6	294.18
